<svg xmlns="http://www.w3.org/2000/svg" viewBox="0 0 40 40">
  <defs>
    <linearGradient id="bg" x1="0" y1="0" x2="40" y2="40">
      <stop stop-color="#061424"/>
      <stop offset="1" stop-color="#082518"/>
    </linearGradient>
    <linearGradient id="cross" x1="8" y1="8" x2="32" y2="32">
      <stop stop-color="#00ffaa"/>
      <stop offset="1" stop-color="#00c46a"/>
    </linearGradient>
    <filter id="glow" x="-45%" y="-45%" width="190%" height="190%">
      <feGaussianBlur stdDeviation="1.4" result="blur"/>
      <feMerge><feMergeNode in="blur"/><feMergeNode in="SourceGraphic"/></feMerge>
    </filter>
  </defs>
  <rect width="40" height="40" rx="10" fill="url(#bg)"/>
  <rect x=".5" y=".5" width="39" height="39" rx="9.5" fill="none" stroke="#00c46a" stroke-opacity=".5"/>
  <circle cx="20" cy="20" r="12" fill="none" stroke="#00ffaa" stroke-width=".8" stroke-dasharray="6 3"/>
  <circle cx="20" cy="20" r="8.5" fill="none" stroke="#00c46a" stroke-width=".6" stroke-dasharray="3 4"/>
  <g fill="#00ffaa" stroke="#00e87e" stroke-width=".8" filter="url(#glow)">
    <path d="M5 11V5h6M29 5h6v6M5 29v6h6M35 29v6h-6" fill="none"/>
    <circle cx="5" cy="5" r="1.3"/><circle cx="35" cy="5" r="1.3"/>
    <circle cx="5" cy="35" r="1.3"/><circle cx="35" cy="35" r="1.3"/>
  </g>
  <g fill="url(#cross)" filter="url(#glow)">
    <rect x="15.5" y="8" width="9" height="24" rx="3"/>
    <rect x="8" y="15.5" width="24" height="9" rx="3"/>
  </g>
  <rect x="16.5" y="16.5" width="7" height="7" rx="1.6" fill="#baffdf" fill-opacity=".55"/>
</svg>
